<?xml version="1.0" ?><svg viewBox="0 0 64 64" xmlns="http://www.w3.org/2000/svg"><title/><g id="Astronaut"><path d="M11,18a1,1,0,0,1-1-1V11a1,1,0,0,1,2,0v6A1,1,0,0,1,11,18Z" style="fill:#ff847c"/><path d="M53,18a1,1,0,0,1-1-1V11a1,1,0,0,1,2,0v6A1,1,0,0,1,53,18Z" style="fill:#ff847c"/><path d="M15.0254,16.3569A.9989.9989,0,0,0,14.26,16H10a3.0033,3.0033,0,0,0-3,3v2a3.0033,3.0033,0,0,0,3,3h4.26a1.0006,1.0006,0,0,0,.9853-1.1724,16.4329,16.4329,0,0,1,0-5.6552A.9991.9991,0,0,0,15.0254,16.3569Z" style="fill:#e84a5f"/><path d="M54,16H49.74a1.0006,1.0006,0,0,0-.9853,1.1724,16.4329,16.4329,0,0,1,0,5.6552A1.0006,1.0006,0,0,0,49.74,24H54a3.0033,3.0033,0,0,0,3-3V19A3.0033,3.0033,0,0,0,54,16Z" style="fill:#e84a5f"/><path d="M32,1A18.9123,18.9123,0,0,0,13.2744,16.8276a18.4734,18.4734,0,0,0-.0019,6.3335,18.8824,18.8824,0,0,0,5.7461,10.7A.9985.9985,0,0,0,19.7,34.13a.9861.9861,0,0,0,.3047-.0479A1.6414,1.6414,0,0,1,20.5,34h23a1.6414,1.6414,0,0,1,.4951.082.9956.9956,0,0,0,.9863-.2207A18.9913,18.9913,0,0,0,32,1Z" style="fill:#d6daf2"/><path d="M56,46V62a1.0029,1.0029,0,0,1-1,1H9a1.0029,1.0029,0,0,1-1-1V46a8.9026,8.9026,0,0,1,1.96-5.6.9893.9893,0,0,1,.99-.36,1.0122,1.0122,0,0,1,.76.72.9745.9745,0,0,0,.46.61l8.66,4.99A.9846.9846,0,0,0,22.19,46a.9631.9631,0,0,0,.1-.76.93.93,0,0,0-.46-.6l-8.6-4.97a1.0192,1.0192,0,0,1-.59-.7,1.0088,1.0088,0,0,1,.56-1.13A8.9227,8.9227,0,0,1,17,37H47a8.9227,8.9227,0,0,1,3.8.84,1.0088,1.0088,0,0,1,.56,1.13,1.0192,1.0192,0,0,1-.59.7l-8.6,4.97a.93.93,0,0,0-.46.6.9631.9631,0,0,0,.1.76.9846.9846,0,0,0,1.36.36l8.66-5a.93.93,0,0,0,.46-.6,1.0122,1.0122,0,0,1,.76-.72.9823.9823,0,0,1,.99.36A8.9026,8.9026,0,0,1,56,46Z" style="fill:#d6daf2"/><path d="M20,59a1,1,0,0,1-1-1V47.04a1,1,0,1,1,2,0V58A1,1,0,0,1,20,59Z" style="fill:#c6cbef"/><path d="M44,59a1,1,0,0,1-1-1V47.04a1,1,0,1,1,2,0V58A1,1,0,0,1,44,59Z" style="fill:#c6cbef"/><path d="M41,50V63H23V50a1.0029,1.0029,0,0,1,1-1H40A1.0029,1.0029,0,0,1,41,50Z" style="fill:#949bdd"/><path d="M35,57H29a1,1,0,0,1,0-2h6a1,1,0,0,1,0,2Z" style="fill:#c6cbef"/><rect height="19" rx="3" style="fill:#949bdd" width="26" x="19" y="10"/><path d="M44.6045,32.1777A3.6086,3.6086,0,0,0,43.5,32h-23a3.65,3.65,0,0,0-1.1309.1865,3.5283,3.5283,0,0,0-1.3457.8364A3.5028,3.5028,0,0,0,20.5,39h23a3.5233,3.5233,0,0,0,2.4766-1.0229A3.4777,3.4777,0,0,0,47,35.5,3.5169,3.5169,0,0,0,44.6045,32.1777Z" style="fill:#c6cbef"/><path d="M22.83,42.9038l-8.67-5.0054a1.0855,1.0855,0,0,0-.1309-.0634,3.0334,3.0334,0,0,0-3.9522,1.1606A2.9962,2.9962,0,0,0,11.17,43.0962l8.6631,5.0015a2.9927,2.9927,0,0,0,2.2725.3,2.9641,2.9641,0,0,0,1.8222-1.4,2.9944,2.9944,0,0,0,.3-2.273A2.96,2.96,0,0,0,22.83,42.9038Z" style="fill:#e84a5f"/><path d="M53.9258,39.0005a3.0328,3.0328,0,0,0-3.97-1.1582,1.1454,1.1454,0,0,0-.126.0615l-8.6572,4.9985a2.9611,2.9611,0,0,0-1.4,1.8218,2.9941,2.9941,0,0,0,.3,2.273,2.9641,2.9641,0,0,0,1.8222,1.4,3,3,0,0,0,2.2754-.3013l8.6641-5.0024a2.9961,2.9961,0,0,0,1.0918-4.0933Z" style="fill:#e84a5f"/><path d="M54,16V11a1,1,0,0,0-2,0v5H50.57A19.019,19.019,0,0,0,27.28,1.59,37.99,37.99,0,0,1,34.23,10a37.3407,37.3407,0,0,1,5.43,19c.01.17.01.33.01.5,0,.84-.03,1.67-.08,2.5-.05.67-.11,1.34-.19,2q-.18,1.53-.48,3c-.13.68-.29,1.34-.46,2a37.575,37.575,0,0,1-4.23,10,37.8625,37.8625,0,0,1-4.52,6c-.5.54-1,1.06-1.53,1.57A37.298,37.298,0,0,1,23,60.75,34.6351,34.6351,0,0,1,19.19,63H55a1.0029,1.0029,0,0,0,1-1V46a8.8552,8.8552,0,0,0-1.68-5.22v-.01l-.0086-.0114a2.9542,2.9542,0,0,0-.3856-1.7581,3.0374,3.0374,0,0,0-3.5136-1.34L50.41,37.66A9.0385,9.0385,0,0,0,47,37h-.34A3.3332,3.3332,0,0,0,47,35.5a3.4992,3.4992,0,0,0-1.11-2.55A18.8866,18.8866,0,0,0,50.57,24H54a3.0033,3.0033,0,0,0,3-3V19A3.0033,3.0033,0,0,0,54,16Z" style="opacity:0.1"/></g></svg>